<!DOCTYPE svg PUBLIC "-//W3C//DTD SVG 1.1//EN" "http://www.w3.org/Graphics/SVG/1.1/DTD/svg11.dtd">

<!-- Uploaded to: SVG Repo, www.svgrepo.com, Transformed by: SVG Repo Mixer Tools -->
<svg fill="#ffffff" version="1.1" id="Capa_1" xmlns="http://www.w3.org/2000/svg" xmlns:xlink="http://www.w3.org/1999/xlink" width="256px" height="256px" viewBox="0 0 45.66 45.66" xml:space="preserve" stroke="#000000" stroke-width="0.00045662999999999997">

<g id="SVGRepo_bgCarrier" stroke-width="0"/>

<g id="SVGRepo_tracerCarrier" stroke-linecap="round" stroke-linejoin="round" stroke="#CCCCCC" stroke-width="0.27397799999999994"/>

<g id="SVGRepo_iconCarrier"> <g> <path d="M44.497,13.651c-0.465-0.754-1.231-1.284-2.103-1.453L9.507,5.789L9.351,4.85C9.194,3.915,8.637,3.104,7.819,2.625 c-0.845-0.495-2.563-1.521-3.9-2.32C2.902-0.303,1.586,0.026,0.978,1.042L0.961,1.067C0.706,1.495,0.629,2.006,0.75,2.49 c0.121,0.482,0.43,0.898,0.857,1.155c1.213,0.727,2.83,1.691,3.812,2.271l3.735,22.363c0.231,1.378,1.31,2.416,2.651,2.621v5.078 c-1.508,0.916-2.519,2.574-2.519,4.465c0,2.878,2.342,5.22,5.219,5.22c2.878,0,5.22-2.341,5.22-5.22 c0-1.271-0.457-2.436-1.214-3.341h13.476c-0.756,0.905-1.213,2.07-1.213,3.341c0,2.878,2.343,5.22,5.221,5.22 c2.877,0,5.219-2.341,5.219-5.22c0-2.479-1.739-4.561-4.062-5.088v-4.475l1.161-0.002c1.417-0.002,2.674-0.957,3.059-2.322 l3.479-12.376C45.091,15.328,44.962,14.407,44.497,13.651z M35.947,26.832l-4.526,0.01V14.189l4.526,0.888V26.832z M16.181,26.877 V11.228l4.602,0.889v14.751L16.181,26.877z M23.801,12.707l4.602,0.889v13.252l-4.602,0.011V12.707z M13.164,10.634v16.249h-0.138 L10.211,10.06L13.164,10.634z M14.505,41.61c-0.643,0-1.166-0.523-1.166-1.166c0-0.644,0.523-1.166,1.166-1.166 s1.166,0.522,1.166,1.166C15.671,41.087,15.148,41.61,14.505,41.61z M35.995,41.61c-0.643,0-1.166-0.523-1.166-1.166 c0-0.644,0.522-1.166,1.166-1.166c0.643,0,1.166,0.522,1.166,1.166C37.161,41.087,36.638,41.61,35.995,41.61z M33.08,33.029H15.878 v-2.099l17.202-0.04V33.029z M39.04,21.955v-6.286l1.675,0.327L39.04,21.955z"/> </g> </g>

</svg>